STARTFONT 2.1
COMMENT
COMMENT Converted from OpenType font "DSEG7ModernMini-BoldItalic.ttf" by "otf2bdf 3.0".
COMMENT
FONT -FreeType-DSEG7 Modern Mini-Bold-I-Normal--61-440-100-100-P-364-ISO10646-1
SIZE 44 100 100
FONTBOUNDINGBOX 52 61 -6 0
STARTPROPERTIES 19
FOUNDRY "FreeType"
FAMILY_NAME "DSEG7 Modern Mini"
WEIGHT_NAME "Bold"
SLANT "I"
SETWIDTH_NAME "Normal"
ADD_STYLE_NAME ""
PIXEL_SIZE 61
POINT_SIZE 440
RESOLUTION_X 100
RESOLUTION_Y 100
SPACING "P"
AVERAGE_WIDTH 364
CHARSET_REGISTRY "ISO10646"
CHARSET_ENCODING "1"
FONT_ASCENT 61
FONT_DESCENT 0
COPYRIGHT "Created by Keshikan  with FontForge 2.0 (http://fontforge.sf.net)"
_OTF_FONTFILE "DSEG7ModernMini-BoldItalic.ttf"
_OTF_PSNAME "DSEG7ModernMini-BoldItalic"
ENDPROPERTIES
CHARS 67
STARTCHAR 0020
ENCODING 32
SWIDTH 196 0
DWIDTH 12 0
BBX 0 0 0 0
BITMAP
ENDCHAR
STARTCHAR 0021
ENCODING 33
SWIDTH 818 0
DWIDTH 50 0
BBX 0 0 0 0
BITMAP
ENDCHAR
STARTCHAR 002D
ENCODING 45
SWIDTH 818 0
DWIDTH 50 0
BBX 22 7 14 27
BITMAP
0FFFFC
1FFFF8
3FFFF8
3FFFF0
7FFFE0
FFFFE0
FFFFC0
ENDCHAR
STARTCHAR 002E
ENCODING 46
SWIDTH 0 0
DWIDTH 0 0
BBX 7 8 -6 0
BITMAP
10
7C
FE
FE
FE
FE
FC
78
ENDCHAR
STARTCHAR 0030
ENCODING 48
SWIDTH 818 0
DWIDTH 50 0
BBX 42 61 4 0
BITMAP
00FFFFFFFE00
007FFFFFFC00
001FFFFFFC00
080FFFFFF840
0E03FFFFF040
0F00FFFFF0C0
0FC07FFFE1C0
0FF01FFFC1C0
0FF0000003C0
0FE0000007C0
0FE000000780
0FE000000F80
0FE000001F80
0FE000001F80
1FE000003F80
1FE000003F80
1FE000007F80
1FE000007F80
1FE000007F80
1FE000007F80
1FC000007F80
1FC000007F80
1FC000007F00
1FC000001F00
1FC000000F00
3FC000000300
3FC000000000
3F8000000000
3F8000000000
3F0000001800
1E0000003E00
060000003F00
000000007F00
00000000FE00
00000000FE00
30000000FE00
38000000FE00
7E000000FE00
7F800001FE00
7F800001FE00
7F800001FE00
7F800001FE00
7F800001FE00
7F000001FE00
7F000001FE00
7F000001FC00
7F000001FC00
7E000001FC00
FE000001FC00
FC000003FC00
F8000003FC00
F8000003FC00
F0000003FC00
E0FFFE03FC00
E1FFFF00FC00
C3FFFFC03C00
83FFFFF01800
87FFFFF80000
0FFFFFFE0000
0FFFFFFF8000
1FFFFFFFC000
ENDCHAR
STARTCHAR 0031
ENCODING 49
SWIDTH 818 0
DWIDTH 50 0
BBX 12 54 34 4
BITMAP
0010
0010
0030
0070
0070
00F0
01F0
01E0
03E0
07E0
07E0
0FE0
0FE0
1FE0
1FE0
1FE0
1FE0
1FE0
1FE0
1FC0
07C0
03C0
00C0
0000
0000
0000
0600
0F80
0FC0
1FC0
3F80
3F80
3F80
3F80
3F80
7F80
7F80
7F80
7F80
7F80
7F80
7F80
7F00
7F00
7F00
7F00
FF00
FF00
FF00
FF00
FF00
3F00
0F00
0600
ENDCHAR
STARTCHAR 0032
ENCODING 50
SWIDTH 818 0
DWIDTH 50 0
BBX 42 61 4 0
BITMAP
00FFFFFFFE00
007FFFFFFC00
001FFFFFFC00
000FFFFFF840
0003FFFFF040
0000FFFFF0C0
00007FFFE1C0
00001FFFC1C0
0000000003C0
0000000007C0
000000000780
000000000F80
000000001F80
000000001F80
000000003F80
000000003F80
000000007F80
000000007F80
000000007F80
000000007F80
000000007F80
000000007F80
000000007F00
000000001F00
000000000F00
000000000300
000000000000
0003FFFF0000
0007FFFE0000
000FFFFE0000
000FFFFC0000
001FFFF80000
003FFFF80000
003FFFF00000
000000000000
300000000000
380000000000
7E0000000000
7F8000000000
7F8000000000
7F8000000000
7F8000000000
7F8000000000
7F0000000000
7F0000000000
7F0000000000
7F0000000000
7E0000000000
FE0000000000
FC0000000000
F80000000000
F80000000000
F00000000000
E0FFFE000000
E1FFFF000000
C3FFFFC00000
83FFFFF00000
87FFFFF80000
0FFFFFFE0000
0FFFFFFF8000
1FFFFFFFC000
ENDCHAR
STARTCHAR 0033
ENCODING 51
SWIDTH 818 0
DWIDTH 50 0
BBX 39 61 7 0
BITMAP
07FFFFFFF0
03FFFFFFE0
00FFFFFFE0
007FFFFFC2
001FFFFF82
0007FFFF86
0003FFFF0E
0000FFFE0E
000000001E
000000003E
000000003C
000000007C
00000000FC
00000000FC
00000001FC
00000001FC
00000003FC
00000003FC
00000003FC
00000003FC
00000003FC
00000003FC
00000003F8
00000000F8
0000000078
0000000018
0000000000
001FFFF800
003FFFF000
007FFFF0C0
007FFFE1F0
00FFFFC1F8
01FFFFC3F8
01FFFF87F0
00000007F0
00000007F0
00000007F0
00000007F0
0000000FF0
0000000FF0
0000000FF0
0000000FF0
0000000FF0
0000000FF0
0000000FF0
0000000FE0
0000000FE0
0000000FE0
0000000FE0
0000001FE0
0000001FE0
0000001FE0
0000001FE0
07FFF01FE0
0FFFF807E0
1FFFFE01E0
1FFFFF80C0
3FFFFFC000
7FFFFFF000
7FFFFFFC00
FFFFFFFE00
ENDCHAR
STARTCHAR 0034
ENCODING 52
SWIDTH 818 0
DWIDTH 50 0
BBX 40 54 6 4
BITMAP
2000000001
3800000001
3C00000003
3F00000007
3FC0000007
3FC000000F
3F8000001F
3F8000001E
3F8000003E
3F8000007E
3F8000007E
7F800000FE
7F800000FE
7F800001FE
7F800001FE
7F800001FE
7F800001FE
7F000001FE
7F000001FE
7F000001FC
7F0000007C
7F0000003C
FF0000000C
FF00000000
FE0FFFFC00
FE1FFFF800
FC3FFFF860
783FFFF0F8
187FFFE0FC
00FFFFE1FC
00FFFFC3F8
00000003F8
00000003F8
00000003F8
00000003F8
00000007F8
00000007F8
00000007F8
00000007F8
00000007F8
00000007F8
00000007F8
00000007F0
00000007F0
00000007F0
00000007F0
0000000FF0
0000000FF0
0000000FF0
0000000FF0
0000000FF0
00000003F0
00000000F0
0000000060
ENDCHAR
STARTCHAR 0035
ENCODING 53
SWIDTH 818 0
DWIDTH 50 0
BBX 38 61 6 0
BITMAP
03FFFFFFF8
01FFFFFFF0
007FFFFFF0
203FFFFFE0
380FFFFFC0
3C03FFFFC0
3F01FFFF80
3FC07FFF00
3FC0000000
3F80000000
3F80000000
3F80000000
3F80000000
3F80000000
7F80000000
7F80000000
7F80000000
7F80000000
7F80000000
7F80000000
7F00000000
7F00000000
7F00000000
7F00000000
7F00000000
FF00000000
FF00000000
FE0FFFFC00
FE1FFFF800
FC3FFFF860
783FFFF0F8
187FFFE0FC
00FFFFE1FC
00FFFFC3F8
00000003F8
00000003F8
00000003F8
00000003F8
00000007F8
00000007F8
00000007F8
00000007F8
00000007F8
00000007F8
00000007F8
00000007F0
00000007F0
00000007F0
00000007F0
0000000FF0
0000000FF0
0000000FF0
0000000FF0
03FFF80FF0
07FFFC03F0
0FFFFF00F0
0FFFFFC060
1FFFFFE000
3FFFFFF800
3FFFFFFE00
7FFFFFFF00
ENDCHAR
STARTCHAR 0036
ENCODING 54
SWIDTH 818 0
DWIDTH 50 0
BBX 40 61 4 0
BITMAP
00FFFFFFFE
007FFFFFFC
001FFFFFFC
080FFFFFF8
0E03FFFFF0
0F00FFFFF0
0FC07FFFE0
0FF01FFFC0
0FF0000000
0FE0000000
0FE0000000
0FE0000000
0FE0000000
0FE0000000
1FE0000000
1FE0000000
1FE0000000
1FE0000000
1FE0000000
1FE0000000
1FC0000000
1FC0000000
1FC0000000
1FC0000000
1FC0000000
3FC0000000
3FC0000000
3F83FFFF00
3F87FFFE00
3F0FFFFE18
1E0FFFFC3E
061FFFF83F
003FFFF87F
003FFFF0FE
00000000FE
30000000FE
38000000FE
7E000000FE
7F800001FE
7F800001FE
7F800001FE
7F800001FE
7F800001FE
7F000001FE
7F000001FE
7F000001FC
7F000001FC
7E000001FC
FE000001FC
FC000003FC
F8000003FC
F8000003FC
F0000003FC
E0FFFE03FC
E1FFFF00FC
C3FFFFC03C
83FFFFF018
87FFFFF800
0FFFFFFE00
0FFFFFFF80
1FFFFFFFC0
ENDCHAR
STARTCHAR 0037
ENCODING 55
SWIDTH 818 0
DWIDTH 50 0
BBX 40 57 6 3
BITMAP
03FFFFFFF8
01FFFFFFF0
007FFFFFF0
203FFFFFE1
380FFFFFC1
3C03FFFFC3
3F01FFFF87
3FC07FFF07
3FC000000F
3F8000001F
3F8000001E
3F8000003E
3F8000007E
3F8000007E
7F800000FE
7F800000FE
7F800001FE
7F800001FE
7F800001FE
7F800001FE
7F000001FE
7F000001FE
7F000001FC
7F0000007C
7F0000003C
FF0000000C
FF00000000
FE00000000
FE00000000
FC00000060
78000000F8
18000000FC
00000001FC
00000003F8
00000003F8
00000003F8
00000003F8
00000003F8
00000007F8
00000007F8
00000007F8
00000007F8
00000007F8
00000007F8
00000007F8
00000007F0
00000007F0
00000007F0
00000007F0
0000000FF0
0000000FF0
0000000FF0
0000000FF0
0000000FF0
00000003F0
00000000F0
0000000060
ENDCHAR
STARTCHAR 0038
ENCODING 56
SWIDTH 818 0
DWIDTH 50 0
BBX 42 61 4 0
BITMAP
00FFFFFFFE00
007FFFFFFC00
001FFFFFFC00
080FFFFFF840
0E03FFFFF040
0F00FFFFF0C0
0FC07FFFE1C0
0FF01FFFC1C0
0FF0000003C0
0FE0000007C0
0FE000000780
0FE000000F80
0FE000001F80
0FE000001F80
1FE000003F80
1FE000003F80
1FE000007F80
1FE000007F80
1FE000007F80
1FE000007F80
1FC000007F80
1FC000007F80
1FC000007F00
1FC000001F00
1FC000000F00
3FC000000300
3FC000000000
3F83FFFF0000
3F87FFFE0000
3F0FFFFE1800
1E0FFFFC3E00
061FFFF83F00
003FFFF87F00
003FFFF0FE00
00000000FE00
30000000FE00
38000000FE00
7E000000FE00
7F800001FE00
7F800001FE00
7F800001FE00
7F800001FE00
7F800001FE00
7F000001FE00
7F000001FE00
7F000001FC00
7F000001FC00
7E000001FC00
FE000001FC00
FC000003FC00
F8000003FC00
F8000003FC00
F0000003FC00
E0FFFE03FC00
E1FFFF00FC00
C3FFFFC03C00
83FFFFF01800
87FFFFF80000
0FFFFFFE0000
0FFFFFFF8000
1FFFFFFFC000
ENDCHAR
STARTCHAR 0039
ENCODING 57
SWIDTH 818 0
DWIDTH 50 0
BBX 40 61 6 0
BITMAP
03FFFFFFF8
01FFFFFFF0
007FFFFFF0
203FFFFFE1
380FFFFFC1
3C03FFFFC3
3F01FFFF87
3FC07FFF07
3FC000000F
3F8000001F
3F8000001E
3F8000003E
3F8000007E
3F8000007E
7F800000FE
7F800000FE
7F800001FE
7F800001FE
7F800001FE
7F800001FE
7F000001FE
7F000001FE
7F000001FC
7F0000007C
7F0000003C
FF0000000C
FF00000000
FE0FFFFC00
FE1FFFF800
FC3FFFF860
783FFFF0F8
187FFFE0FC
00FFFFE1FC
00FFFFC3F8
00000003F8
00000003F8
00000003F8
00000003F8
00000007F8
00000007F8
00000007F8
00000007F8
00000007F8
00000007F8
00000007F8
00000007F0
00000007F0
00000007F0
00000007F0
0000000FF0
0000000FF0
0000000FF0
0000000FF0
03FFF80FF0
07FFFC03F0
0FFFFF00F0
0FFFFFC060
1FFFFFE000
3FFFFFF800
3FFFFFFE00
7FFFFFFF00
ENDCHAR
STARTCHAR 003A
ENCODING 58
SWIDTH 196 0
DWIDTH 12 0
BBX 10 33 1 13
BITMAP
0F00
1F80
1FC0
3FC0
3FC0
1FC0
0F80
0000
0000
0000
0000
0000
0000
0000
0000
0000
0000
0000
0000
0000
0000
0000
0000
0000
0000
3C00
7E00
FF00
FF00
FF00
7E00
7E00
1800
ENDCHAR
STARTCHAR 0041
ENCODING 65
SWIDTH 818 0
DWIDTH 50 0
BBX 42 58 4 2
BITMAP
00FFFFFFFE00
007FFFFFFC00
001FFFFFFC00
080FFFFFF840
0E03FFFFF040
0F00FFFFF0C0
0FC07FFFE1C0
0FF01FFFC1C0
0FF0000003C0
0FE0000007C0
0FE000000780
0FE000000F80
0FE000001F80
0FE000001F80
1FE000003F80
1FE000003F80
1FE000007F80
1FE000007F80
1FE000007F80
1FE000007F80
1FC000007F80
1FC000007F80
1FC000007F00
1FC000001F00
1FC000000F00
3FC000000300
3FC000000000
3F83FFFF0000
3F87FFFE0000
3F0FFFFE1800
1E0FFFFC3E00
061FFFF83F00
003FFFF87F00
003FFFF0FE00
00000000FE00
30000000FE00
38000000FE00
7E000000FE00
7F800001FE00
7F800001FE00
7F800001FE00
7F800001FE00
7F800001FE00
7F000001FE00
7F000001FE00
7F000001FC00
7F000001FC00
7E000001FC00
FE000001FC00
FC000003FC00
F8000003FC00
F8000003FC00
F0000003FC00
E0000003FC00
E0000000FC00
C00000003C00
800000001800
800000000000
ENDCHAR
STARTCHAR 0042
ENCODING 66
SWIDTH 818 0
DWIDTH 50 0
BBX 40 58 4 0
BITMAP
0800000000
0E00000000
0F00000000
0FC0000000
0FF0000000
0FF0000000
0FE0000000
0FE0000000
0FE0000000
0FE0000000
0FE0000000
1FE0000000
1FE0000000
1FE0000000
1FE0000000
1FE0000000
1FE0000000
1FC0000000
1FC0000000
1FC0000000
1FC0000000
1FC0000000
3FC0000000
3FC0000000
3F83FFFF00
3F87FFFE00
3F0FFFFE18
1E0FFFFC3E
061FFFF83F
003FFFF87F
003FFFF0FE
00000000FE
30000000FE
38000000FE
7E000000FE
7F800001FE
7F800001FE
7F800001FE
7F800001FE
7F800001FE
7F000001FE
7F000001FE
7F000001FC
7F000001FC
7E000001FC
FE000001FC
FC000003FC
F8000003FC
F8000003FC
F0000003FC
E0FFFE03FC
E1FFFF00FC
C3FFFFC03C
83FFFFF018
87FFFFF800
0FFFFFFE00
0FFFFFFF80
1FFFFFFFC0
ENDCHAR
STARTCHAR 0043
ENCODING 67
SWIDTH 818 0
DWIDTH 50 0
BBX 34 34 4 0
BITMAP
0003FFFF00
0007FFFE00
000FFFFE00
000FFFFC00
001FFFF800
003FFFF800
003FFFF000
0000000000
3000000000
3800000000
7E00000000
7F80000000
7F80000000
7F80000000
7F80000000
7F80000000
7F00000000
7F00000000
7F00000000
7F00000000
7E00000000
FE00000000
FC00000000
F800000000
F800000000
F000000000
E0FFFE0000
E1FFFF0000
C3FFFFC000
83FFFFF000
87FFFFF800
0FFFFFFE00
0FFFFFFF80
1FFFFFFFC0
ENDCHAR
STARTCHAR 0044
ENCODING 68
SWIDTH 818 0
DWIDTH 50 0
BBX 42 58 4 1
BITMAP
000000000040
000000000040
0000000000C0
0000000001C0
0000000001C0
0000000003C0
0000000007C0
000000000780
000000000F80
000000001F80
000000001F80
000000003F80
000000003F80
000000007F80
000000007F80
000000007F80
000000007F80
000000007F80
000000007F80
000000007F00
000000001F00
000000000F00
000000000300
000000000000
0003FFFF0000
0007FFFE0000
000FFFFE1800
000FFFFC3E00
001FFFF83F00
003FFFF87F00
003FFFF0FE00
00000000FE00
30000000FE00
38000000FE00
7E000000FE00
7F800001FE00
7F800001FE00
7F800001FE00
7F800001FE00
7F800001FE00
7F000001FE00
7F000001FE00
7F000001FC00
7F000001FC00
7E000001FC00
FE000001FC00
FC000003FC00
F8000003FC00
F8000003FC00
F0000003FC00
E0FFFE03FC00
E1FFFF00FC00
C3FFFFC03C00
83FFFFF01800
87FFFFF80000
0FFFFFFE0000
0FFFFFFF8000
1FFFFFFFC000
ENDCHAR
STARTCHAR 0045
ENCODING 69
SWIDTH 818 0
DWIDTH 50 0
BBX 39 61 4 0
BITMAP
00FFFFFFFE
007FFFFFFC
001FFFFFFC
080FFFFFF8
0E03FFFFF0
0F00FFFFF0
0FC07FFFE0
0FF01FFFC0
0FF0000000
0FE0000000
0FE0000000
0FE0000000
0FE0000000
0FE0000000
1FE0000000
1FE0000000
1FE0000000
1FE0000000
1FE0000000
1FE0000000
1FC0000000
1FC0000000
1FC0000000
1FC0000000
1FC0000000
3FC0000000
3FC0000000
3F83FFFF00
3F87FFFE00
3F0FFFFE00
1E0FFFFC00
061FFFF800
003FFFF800
003FFFF000
0000000000
3000000000
3800000000
7E00000000
7F80000000
7F80000000
7F80000000
7F80000000
7F80000000
7F00000000
7F00000000
7F00000000
7F00000000
7E00000000
FE00000000
FC00000000
F800000000
F800000000
F000000000
E0FFFE0000
E1FFFF0000
C3FFFFC000
83FFFFF000
87FFFFF800
0FFFFFFE00
0FFFFFFF80
1FFFFFFFC0
ENDCHAR
STARTCHAR 0046
ENCODING 70
SWIDTH 818 0
DWIDTH 50 0
BBX 39 58 4 2
BITMAP
00FFFFFFFE
007FFFFFFC
001FFFFFFC
080FFFFFF8
0E03FFFFF0
0F00FFFFF0
0FC07FFFE0
0FF01FFFC0
0FF0000000
0FE0000000
0FE0000000
0FE0000000
0FE0000000
0FE0000000
1FE0000000
1FE0000000
1FE0000000
1FE0000000
1FE0000000
1FE0000000
1FC0000000
1FC0000000
1FC0000000
1FC0000000
1FC0000000
3FC0000000
3FC0000000
3F83FFFF00
3F87FFFE00
3F0FFFFE00
1E0FFFFC00
061FFFF800
003FFFF800
003FFFF000
0000000000
3000000000
3800000000
7E00000000
7F80000000
7F80000000
7F80000000
7F80000000
7F80000000
7F00000000
7F00000000
7F00000000
7F00000000
7E00000000
FE00000000
FC00000000
F800000000
F800000000
F000000000
E000000000
E000000000
C000000000
8000000000
8000000000
ENDCHAR
STARTCHAR 0047
ENCODING 71
SWIDTH 818 0
DWIDTH 50 0
BBX 40 61 4 0
BITMAP
00FFFFFFFE
007FFFFFFC
001FFFFFFC
080FFFFFF8
0E03FFFFF0
0F00FFFFF0
0FC07FFFE0
0FF01FFFC0
0FF0000000
0FE0000000
0FE0000000
0FE0000000
0FE0000000
0FE0000000
1FE0000000
1FE0000000
1FE0000000
1FE0000000
1FE0000000
1FE0000000
1FC0000000
1FC0000000
1FC0000000
1FC0000000
1FC0000000
3FC0000000
3FC0000000
3F80000000
3F80000000
3F00000018
1E0000003E
060000003F
000000007F
00000000FE
00000000FE
30000000FE
38000000FE
7E000000FE
7F800001FE
7F800001FE
7F800001FE
7F800001FE
7F800001FE
7F000001FE
7F000001FE
7F000001FC
7F000001FC
7E000001FC
FE000001FC
FC000003FC
F8000003FC
F8000003FC
F0000003FC
E0FFFE03FC
E1FFFF00FC
C3FFFFC03C
83FFFFF018
87FFFFF800
0FFFFFFE00
0FFFFFFF80
1FFFFFFFC0
ENDCHAR
STARTCHAR 0048
ENCODING 72
SWIDTH 818 0
DWIDTH 50 0
BBX 40 55 4 2
BITMAP
0800000000
0E00000000
0F00000000
0FC0000000
0FF0000000
0FF0000000
0FE0000000
0FE0000000
0FE0000000
0FE0000000
0FE0000000
1FE0000000
1FE0000000
1FE0000000
1FE0000000
1FE0000000
1FE0000000
1FC0000000
1FC0000000
1FC0000000
1FC0000000
1FC0000000
3FC0000000
3FC0000000
3F83FFFF00
3F87FFFE00
3F0FFFFE18
1E0FFFFC3E
061FFFF83F
003FFFF87F
003FFFF0FE
00000000FE
30000000FE
38000000FE
7E000000FE
7F800001FE
7F800001FE
7F800001FE
7F800001FE
7F800001FE
7F000001FE
7F000001FE
7F000001FC
7F000001FC
7E000001FC
FE000001FC
FC000003FC
F8000003FC
F8000003FC
F0000003FC
E0000003FC
E0000000FC
C00000003C
8000000018
8000000000
ENDCHAR
STARTCHAR 0049
ENCODING 73
SWIDTH 818 0
DWIDTH 50 0
BBX 10 28 34 3
BITMAP
0600
0F80
0FC0
1FC0
3F80
3F80
3F80
3F80
3F80
7F80
7F80
7F80
7F80
7F80
7F80
7F80
7F00
7F00
7F00
7F00
FF00
FF00
FF00
FF00
FF00
3F00
0F00
0600
ENDCHAR
STARTCHAR 004A
ENCODING 74
SWIDTH 818 0
DWIDTH 50 0
BBX 42 58 4 1
BITMAP
000000000040
000000000040
0000000000C0
0000000001C0
0000000001C0
0000000003C0
0000000007C0
000000000780
000000000F80
000000001F80
000000001F80
000000003F80
000000003F80
000000007F80
000000007F80
000000007F80
000000007F80
000000007F80
000000007F80
000000007F00
000000001F00
000000000F00
000000000300
000000000000
000000000000
000000000000
000000001800
000000003E00
000000003F00
000000007F00
00000000FE00
00000000FE00
30000000FE00
38000000FE00
7E000000FE00
7F800001FE00
7F800001FE00
7F800001FE00
7F800001FE00
7F800001FE00
7F000001FE00
7F000001FE00
7F000001FC00
7F000001FC00
7E000001FC00
FE000001FC00
FC000003FC00
F8000003FC00
F8000003FC00
F0000003FC00
E0FFFE03FC00
E1FFFF00FC00
C3FFFFC03C00
83FFFFF01800
87FFFFF80000
0FFFFFFE0000
0FFFFFFF8000
1FFFFFFFC000
ENDCHAR
STARTCHAR 004B
ENCODING 75
SWIDTH 818 0
DWIDTH 50 0
BBX 40 58 4 2
BITMAP
00FFFFFFFE
007FFFFFFC
001FFFFFFC
080FFFFFF8
0E03FFFFF0
0F00FFFFF0
0FC07FFFE0
0FF01FFFC0
0FF0000000
0FE0000000
0FE0000000
0FE0000000
0FE0000000
0FE0000000
1FE0000000
1FE0000000
1FE0000000
1FE0000000
1FE0000000
1FE0000000
1FC0000000
1FC0000000
1FC0000000
1FC0000000
1FC0000000
3FC0000000
3FC0000000
3F83FFFF00
3F87FFFE00
3F0FFFFE18
1E0FFFFC3E
061FFFF83F
003FFFF87F
003FFFF0FE
00000000FE
30000000FE
38000000FE
7E000000FE
7F800001FE
7F800001FE
7F800001FE
7F800001FE
7F800001FE
7F000001FE
7F000001FE
7F000001FC
7F000001FC
7E000001FC
FE000001FC
FC000003FC
F8000003FC
F8000003FC
F0000003FC
E0000003FC
E0000000FC
C00000003C
8000000018
8000000000
ENDCHAR
STARTCHAR 004C
ENCODING 76
SWIDTH 818 0
DWIDTH 50 0
BBX 34 58 4 0
BITMAP
0800000000
0E00000000
0F00000000
0FC0000000
0FF0000000
0FF0000000
0FE0000000
0FE0000000
0FE0000000
0FE0000000
0FE0000000
1FE0000000
1FE0000000
1FE0000000
1FE0000000
1FE0000000
1FE0000000
1FC0000000
1FC0000000
1FC0000000
1FC0000000
1FC0000000
3FC0000000
3FC0000000
3F80000000
3F80000000
3F00000000
1E00000000
0600000000
0000000000
0000000000
0000000000
3000000000
3800000000
7E00000000
7F80000000
7F80000000
7F80000000
7F80000000
7F80000000
7F00000000
7F00000000
7F00000000
7F00000000
7E00000000
FE00000000
FC00000000
F800000000
F800000000
F000000000
E0FFFE0000
E1FFFF0000
C3FFFFC000
83FFFFF000
87FFFFF800
0FFFFFFE00
0FFFFFFF80
1FFFFFFFC0
ENDCHAR
STARTCHAR 004D
ENCODING 77
SWIDTH 818 0
DWIDTH 50 0
BBX 42 58 4 2
BITMAP
00FFFFFFFE00
007FFFFFFC00
001FFFFFFC00
080FFFFFF840
0E03FFFFF040
0F00FFFFF0C0
0FC07FFFE1C0
0FF01FFFC1C0
0FF0000003C0
0FE0000007C0
0FE000000780
0FE000000F80
0FE000001F80
0FE000001F80
1FE000003F80
1FE000003F80
1FE000007F80
1FE000007F80
1FE000007F80
1FE000007F80
1FC000007F80
1FC000007F80
1FC000007F00
1FC000001F00
1FC000000F00
3FC000000300
3FC000000000
3F8000000000
3F8000000000
3F0000001800
1E0000003E00
060000003F00
000000007F00
00000000FE00
00000000FE00
30000000FE00
38000000FE00
7E000000FE00
7F800001FE00
7F800001FE00
7F800001FE00
7F800001FE00
7F800001FE00
7F000001FE00
7F000001FE00
7F000001FC00
7F000001FC00
7E000001FC00
FE000001FC00
FC000003FC00
F8000003FC00
F8000003FC00
F0000003FC00
E0000003FC00
E0000000FC00
C00000003C00
800000001800
800000000000
ENDCHAR
STARTCHAR 004E
ENCODING 78
SWIDTH 818 0
DWIDTH 50 0
BBX 40 31 4 2
BITMAP
0003FFFF00
0007FFFE00
000FFFFE18
000FFFFC3E
001FFFF83F
003FFFF87F
003FFFF0FE
00000000FE
30000000FE
38000000FE
7E000000FE
7F800001FE
7F800001FE
7F800001FE
7F800001FE
7F800001FE
7F000001FE
7F000001FE
7F000001FC
7F000001FC
7E000001FC
FE000001FC
FC000003FC
F8000003FC
F8000003FC
F0000003FC
E0000003FC
E0000000FC
C00000003C
8000000018
8000000000
ENDCHAR
STARTCHAR 004F
ENCODING 79
SWIDTH 818 0
DWIDTH 50 0
BBX 40 34 4 0
BITMAP
0003FFFF00
0007FFFE00
000FFFFE18
000FFFFC3E
001FFFF83F
003FFFF87F
003FFFF0FE
00000000FE
30000000FE
38000000FE
7E000000FE
7F800001FE
7F800001FE
7F800001FE
7F800001FE
7F800001FE
7F000001FE
7F000001FE
7F000001FC
7F000001FC
7E000001FC
FE000001FC
FC000003FC
F8000003FC
F8000003FC
F0000003FC
E0FFFE03FC
E1FFFF00FC
C3FFFFC03C
83FFFFF018
87FFFFF800
0FFFFFFE00
0FFFFFFF80
1FFFFFFFC0
ENDCHAR
STARTCHAR 0050
ENCODING 80
SWIDTH 818 0
DWIDTH 50 0
BBX 42 58 4 2
BITMAP
00FFFFFFFE00
007FFFFFFC00
001FFFFFFC00
080FFFFFF840
0E03FFFFF040
0F00FFFFF0C0
0FC07FFFE1C0
0FF01FFFC1C0
0FF0000003C0
0FE0000007C0
0FE000000780
0FE000000F80
0FE000001F80
0FE000001F80
1FE000003F80
1FE000003F80
1FE000007F80
1FE000007F80
1FE000007F80
1FE000007F80
1FC000007F80
1FC000007F80
1FC000007F00
1FC000001F00
1FC000000F00
3FC000000300
3FC000000000
3F83FFFF0000
3F87FFFE0000
3F0FFFFE0000
1E0FFFFC0000
061FFFF80000
003FFFF80000
003FFFF00000
000000000000
300000000000
380000000000
7E0000000000
7F8000000000
7F8000000000
7F8000000000
7F8000000000
7F8000000000
7F0000000000
7F0000000000
7F0000000000
7F0000000000
7E0000000000
FE0000000000
FC0000000000
F80000000000
F80000000000
F00000000000
E00000000000
E00000000000
C00000000000
800000000000
800000000000
ENDCHAR
STARTCHAR 0051
ENCODING 81
SWIDTH 818 0
DWIDTH 50 0
BBX 40 57 6 3
BITMAP
03FFFFFFF8
01FFFFFFF0
007FFFFFF0
203FFFFFE1
380FFFFFC1
3C03FFFFC3
3F01FFFF87
3FC07FFF07
3FC000000F
3F8000001F
3F8000001E
3F8000003E
3F8000007E
3F8000007E
7F800000FE
7F800000FE
7F800001FE
7F800001FE
7F800001FE
7F800001FE
7F000001FE
7F000001FE
7F000001FC
7F0000007C
7F0000003C
FF0000000C
FF00000000
FE0FFFFC00
FE1FFFF800
FC3FFFF860
783FFFF0F8
187FFFE0FC
00FFFFE1FC
00FFFFC3F8
00000003F8
00000003F8
00000003F8
00000003F8
00000007F8
00000007F8
00000007F8
00000007F8
00000007F8
00000007F8
00000007F8
00000007F0
00000007F0
00000007F0
00000007F0
0000000FF0
0000000FF0
0000000FF0
0000000FF0
0000000FF0
00000003F0
00000000F0
0000000060
ENDCHAR
STARTCHAR 0052
ENCODING 82
SWIDTH 818 0
DWIDTH 50 0
BBX 32 31 4 2
BITMAP
0003FFFF
0007FFFE
000FFFFE
000FFFFC
001FFFF8
003FFFF8
003FFFF0
00000000
30000000
38000000
7E000000
7F800000
7F800000
7F800000
7F800000
7F800000
7F000000
7F000000
7F000000
7F000000
7E000000
FE000000
FC000000
F8000000
F8000000
F0000000
E0000000
E0000000
C0000000
80000000
80000000
ENDCHAR
STARTCHAR 0053
ENCODING 83
SWIDTH 818 0
DWIDTH 50 0
BBX 38 58 6 0
BITMAP
2000000000
3800000000
3C00000000
3F00000000
3FC0000000
3FC0000000
3F80000000
3F80000000
3F80000000
3F80000000
3F80000000
7F80000000
7F80000000
7F80000000
7F80000000
7F80000000
7F80000000
7F00000000
7F00000000
7F00000000
7F00000000
7F00000000
FF00000000
FF00000000
FE0FFFFC00
FE1FFFF800
FC3FFFF860
783FFFF0F8
187FFFE0FC
00FFFFE1FC
00FFFFC3F8
00000003F8
00000003F8
00000003F8
00000003F8
00000007F8
00000007F8
00000007F8
00000007F8
00000007F8
00000007F8
00000007F8
00000007F0
00000007F0
00000007F0
00000007F0
0000000FF0
0000000FF0
0000000FF0
0000000FF0
03FFF80FF0
07FFFC03F0
0FFFFF00F0
0FFFFFC060
1FFFFFE000
3FFFFFF800
3FFFFFFE00
7FFFFFFF00
ENDCHAR
STARTCHAR 0054
ENCODING 84
SWIDTH 818 0
DWIDTH 50 0
BBX 34 58 4 0
BITMAP
0800000000
0E00000000
0F00000000
0FC0000000
0FF0000000
0FF0000000
0FE0000000
0FE0000000
0FE0000000
0FE0000000
0FE0000000
1FE0000000
1FE0000000
1FE0000000
1FE0000000
1FE0000000
1FE0000000
1FC0000000
1FC0000000
1FC0000000
1FC0000000
1FC0000000
3FC0000000
3FC0000000
3F83FFFF00
3F87FFFE00
3F0FFFFE00
1E0FFFFC00
061FFFF800
003FFFF800
003FFFF000
0000000000
3000000000
3800000000
7E00000000
7F80000000
7F80000000
7F80000000
7F80000000
7F80000000
7F00000000
7F00000000
7F00000000
7F00000000
7E00000000
FE00000000
FC00000000
F800000000
F800000000
F000000000
E0FFFE0000
E1FFFF0000
C3FFFFC000
83FFFFF000
87FFFFF800
0FFFFFFE00
0FFFFFFF80
1FFFFFFFC0
ENDCHAR
STARTCHAR 0055
ENCODING 85
SWIDTH 818 0
DWIDTH 50 0
BBX 40 32 4 0
BITMAP
0000000018
000000003E
000000003F
000000007F
00000000FE
00000000FE
30000000FE
38000000FE
7E000000FE
7F800001FE
7F800001FE
7F800001FE
7F800001FE
7F800001FE
7F000001FE
7F000001FE
7F000001FC
7F000001FC
7E000001FC
FE000001FC
FC000003FC
F8000003FC
F8000003FC
F0000003FC
E0FFFE03FC
E1FFFF00FC
C3FFFFC03C
83FFFFF018
87FFFFF800
0FFFFFFE00
0FFFFFFF80
1FFFFFFFC0
ENDCHAR
STARTCHAR 0056
ENCODING 86
SWIDTH 818 0
DWIDTH 50 0
BBX 42 58 4 1
BITMAP
080000000040
0E0000000040
0F00000000C0
0FC0000001C0
0FF0000001C0
0FF0000003C0
0FE0000007C0
0FE000000780
0FE000000F80
0FE000001F80
0FE000001F80
1FE000003F80
1FE000003F80
1FE000007F80
1FE000007F80
1FE000007F80
1FE000007F80
1FC000007F80
1FC000007F80
1FC000007F00
1FC000001F00
1FC000000F00
3FC000000300
3FC000000000
3F8000000000
3F8000000000
3F0000001800
1E0000003E00
060000003F00
000000007F00
00000000FE00
00000000FE00
30000000FE00
38000000FE00
7E000000FE00
7F800001FE00
7F800001FE00
7F800001FE00
7F800001FE00
7F800001FE00
7F000001FE00
7F000001FE00
7F000001FC00
7F000001FC00
7E000001FC00
FE000001FC00
FC000003FC00
F8000003FC00
F8000003FC00
F0000003FC00
E0FFFE03FC00
E1FFFF00FC00
C3FFFFC03C00
83FFFFF01800
87FFFFF80000
0FFFFFFE0000
0FFFFFFF8000
1FFFFFFFC000
ENDCHAR
STARTCHAR 0057
ENCODING 87
SWIDTH 818 0
DWIDTH 50 0
BBX 42 58 4 1
BITMAP
080000000040
0E0000000040
0F00000000C0
0FC0000001C0
0FF0000001C0
0FF0000003C0
0FE0000007C0
0FE000000780
0FE000000F80
0FE000001F80
0FE000001F80
1FE000003F80
1FE000003F80
1FE000007F80
1FE000007F80
1FE000007F80
1FE000007F80
1FC000007F80
1FC000007F80
1FC000007F00
1FC000001F00
1FC000000F00
3FC000000300
3FC000000000
3F83FFFF0000
3F87FFFE0000
3F0FFFFE1800
1E0FFFFC3E00
061FFFF83F00
003FFFF87F00
003FFFF0FE00
00000000FE00
30000000FE00
38000000FE00
7E000000FE00
7F800001FE00
7F800001FE00
7F800001FE00
7F800001FE00
7F800001FE00
7F000001FE00
7F000001FE00
7F000001FC00
7F000001FC00
7E000001FC00
FE000001FC00
FC000003FC00
F8000003FC00
F8000003FC00
F0000003FC00
E0FFFE03FC00
E1FFFF00FC00
C3FFFFC03C00
83FFFFF01800
87FFFFF80000
0FFFFFFE0000
0FFFFFFF8000
1FFFFFFFC000
ENDCHAR
STARTCHAR 0058
ENCODING 88
SWIDTH 818 0
DWIDTH 50 0
BBX 42 55 4 3
BITMAP
080000000040
0E0000000040
0F00000000C0
0FC0000001C0
0FF0000001C0
0FF0000003C0
0FE0000007C0
0FE000000780
0FE000000F80
0FE000001F80
0FE000001F80
1FE000003F80
1FE000003F80
1FE000007F80
1FE000007F80
1FE000007F80
1FE000007F80
1FC000007F80
1FC000007F80
1FC000007F00
1FC000001F00
1FC000000F00
3FC000000300
3FC000000000
3F83FFFF0000
3F87FFFE0000
3F0FFFFE1800
1E0FFFFC3E00
061FFFF83F00
003FFFF87F00
003FFFF0FE00
00000000FE00
30000000FE00
38000000FE00
7E000000FE00
7F800001FE00
7F800001FE00
7F800001FE00
7F800001FE00
7F800001FE00
7F000001FE00
7F000001FE00
7F000001FC00
7F000001FC00
7E000001FC00
FE000001FC00
FC000003FC00
F8000003FC00
F8000003FC00
F0000003FC00
E0000003FC00
E0000000FC00
C00000003C00
800000001800
800000000000
ENDCHAR
STARTCHAR 0059
ENCODING 89
SWIDTH 818 0
DWIDTH 50 0
BBX 40 58 6 1
BITMAP
2000000001
3800000001
3C00000003
3F00000007
3FC0000007
3FC000000F
3F8000001F
3F8000001E
3F8000003E
3F8000007E
3F8000007E
7F800000FE
7F800000FE
7F800001FE
7F800001FE
7F800001FE
7F800001FE
7F000001FE
7F000001FE
7F000001FC
7F0000007C
7F0000003C
FF0000000C
FF00000000
FE0FFFFC00
FE1FFFF800
FC3FFFF860
783FFFF0F8
187FFFE0FC
00FFFFE1FC
00FFFFC3F8
00000003F8
00000003F8
00000003F8
00000003F8
00000007F8
00000007F8
00000007F8
00000007F8
00000007F8
00000007F8
00000007F8
00000007F0
00000007F0
00000007F0
00000007F0
0000000FF0
0000000FF0
0000000FF0
0000000FF0
03FFF80FF0
07FFFC03F0
0FFFFF00F0
0FFFFFC060
1FFFFFE000
3FFFFFF800
3FFFFFFE00
7FFFFFFF00
ENDCHAR
STARTCHAR 005A
ENCODING 90
SWIDTH 818 0
DWIDTH 50 0
BBX 42 61 4 0
BITMAP
00FFFFFFFE00
007FFFFFFC00
001FFFFFFC00
000FFFFFF840
0003FFFFF040
0000FFFFF0C0
00007FFFE1C0
00001FFFC1C0
0000000003C0
0000000007C0
000000000780
000000000F80
000000001F80
000000001F80
000000003F80
000000003F80
000000007F80
000000007F80
000000007F80
000000007F80
000000007F80
000000007F80
000000007F00
000000001F00
000000000F00
000000000300
000000000000
000000000000
000000000000
000000000000
000000000000
000000000000
000000000000
000000000000
000000000000
300000000000
380000000000
7E0000000000
7F8000000000
7F8000000000
7F8000000000
7F8000000000
7F8000000000
7F0000000000
7F0000000000
7F0000000000
7F0000000000
7E0000000000
FE0000000000
FC0000000000
F80000000000
F80000000000
F00000000000
E0FFFE000000
E1FFFF000000
C3FFFFC00000
83FFFFF00000
87FFFFF80000
0FFFFFFE0000
0FFFFFFF8000
1FFFFFFFC000
ENDCHAR
STARTCHAR 0061
ENCODING 97
SWIDTH 818 0
DWIDTH 50 0
BBX 42 58 4 2
BITMAP
00FFFFFFFE00
007FFFFFFC00
001FFFFFFC00
080FFFFFF840
0E03FFFFF040
0F00FFFFF0C0
0FC07FFFE1C0
0FF01FFFC1C0
0FF0000003C0
0FE0000007C0
0FE000000780
0FE000000F80
0FE000001F80
0FE000001F80
1FE000003F80
1FE000003F80
1FE000007F80
1FE000007F80
1FE000007F80
1FE000007F80
1FC000007F80
1FC000007F80
1FC000007F00
1FC000001F00
1FC000000F00
3FC000000300
3FC000000000
3F83FFFF0000
3F87FFFE0000
3F0FFFFE1800
1E0FFFFC3E00
061FFFF83F00
003FFFF87F00
003FFFF0FE00
00000000FE00
30000000FE00
38000000FE00
7E000000FE00
7F800001FE00
7F800001FE00
7F800001FE00
7F800001FE00
7F800001FE00
7F000001FE00
7F000001FE00
7F000001FC00
7F000001FC00
7E000001FC00
FE000001FC00
FC000003FC00
F8000003FC00
F8000003FC00
F0000003FC00
E0000003FC00
E0000000FC00
C00000003C00
800000001800
800000000000
ENDCHAR
STARTCHAR 0062
ENCODING 98
SWIDTH 818 0
DWIDTH 50 0
BBX 40 58 4 0
BITMAP
0800000000
0E00000000
0F00000000
0FC0000000
0FF0000000
0FF0000000
0FE0000000
0FE0000000
0FE0000000
0FE0000000
0FE0000000
1FE0000000
1FE0000000
1FE0000000
1FE0000000
1FE0000000
1FE0000000
1FC0000000
1FC0000000
1FC0000000
1FC0000000
1FC0000000
3FC0000000
3FC0000000
3F83FFFF00
3F87FFFE00
3F0FFFFE18
1E0FFFFC3E
061FFFF83F
003FFFF87F
003FFFF0FE
00000000FE
30000000FE
38000000FE
7E000000FE
7F800001FE
7F800001FE
7F800001FE
7F800001FE
7F800001FE
7F000001FE
7F000001FE
7F000001FC
7F000001FC
7E000001FC
FE000001FC
FC000003FC
F8000003FC
F8000003FC
F0000003FC
E0FFFE03FC
E1FFFF00FC
C3FFFFC03C
83FFFFF018
87FFFFF800
0FFFFFFE00
0FFFFFFF80
1FFFFFFFC0
ENDCHAR
STARTCHAR 0063
ENCODING 99
SWIDTH 818 0
DWIDTH 50 0
BBX 34 34 4 0
BITMAP
0003FFFF00
0007FFFE00
000FFFFE00
000FFFFC00
001FFFF800
003FFFF800
003FFFF000
0000000000
3000000000
3800000000
7E00000000
7F80000000
7F80000000
7F80000000
7F80000000
7F80000000
7F00000000
7F00000000
7F00000000
7F00000000
7E00000000
FE00000000
FC00000000
F800000000
F800000000
F000000000
E0FFFE0000
E1FFFF0000
C3FFFFC000
83FFFFF000
87FFFFF800
0FFFFFFE00
0FFFFFFF80
1FFFFFFFC0
ENDCHAR
STARTCHAR 0064
ENCODING 100
SWIDTH 818 0
DWIDTH 50 0
BBX 42 58 4 1
BITMAP
000000000040
000000000040
0000000000C0
0000000001C0
0000000001C0
0000000003C0
0000000007C0
000000000780
000000000F80
000000001F80
000000001F80
000000003F80
000000003F80
000000007F80
000000007F80
000000007F80
000000007F80
000000007F80
000000007F80
000000007F00
000000001F00
000000000F00
000000000300
000000000000
0003FFFF0000
0007FFFE0000
000FFFFE1800
000FFFFC3E00
001FFFF83F00
003FFFF87F00
003FFFF0FE00
00000000FE00
30000000FE00
38000000FE00
7E000000FE00
7F800001FE00
7F800001FE00
7F800001FE00
7F800001FE00
7F800001FE00
7F000001FE00
7F000001FE00
7F000001FC00
7F000001FC00
7E000001FC00
FE000001FC00
FC000003FC00
F8000003FC00
F8000003FC00
F0000003FC00
E0FFFE03FC00
E1FFFF00FC00
C3FFFFC03C00
83FFFFF01800
87FFFFF80000
0FFFFFFE0000
0FFFFFFF8000
1FFFFFFFC000
ENDCHAR
STARTCHAR 0065
ENCODING 101
SWIDTH 818 0
DWIDTH 50 0
BBX 39 61 4 0
BITMAP
00FFFFFFFE
007FFFFFFC
001FFFFFFC
080FFFFFF8
0E03FFFFF0
0F00FFFFF0
0FC07FFFE0
0FF01FFFC0
0FF0000000
0FE0000000
0FE0000000
0FE0000000
0FE0000000
0FE0000000
1FE0000000
1FE0000000
1FE0000000
1FE0000000
1FE0000000
1FE0000000
1FC0000000
1FC0000000
1FC0000000
1FC0000000
1FC0000000
3FC0000000
3FC0000000
3F83FFFF00
3F87FFFE00
3F0FFFFE00
1E0FFFFC00
061FFFF800
003FFFF800
003FFFF000
0000000000
3000000000
3800000000
7E00000000
7F80000000
7F80000000
7F80000000
7F80000000
7F80000000
7F00000000
7F00000000
7F00000000
7F00000000
7E00000000
FE00000000
FC00000000
F800000000
F800000000
F000000000
E0FFFE0000
E1FFFF0000
C3FFFFC000
83FFFFF000
87FFFFF800
0FFFFFFE00
0FFFFFFF80
1FFFFFFFC0
ENDCHAR
STARTCHAR 0066
ENCODING 102
SWIDTH 818 0
DWIDTH 50 0
BBX 39 58 4 2
BITMAP
00FFFFFFFE
007FFFFFFC
001FFFFFFC
080FFFFFF8
0E03FFFFF0
0F00FFFFF0
0FC07FFFE0
0FF01FFFC0
0FF0000000
0FE0000000
0FE0000000
0FE0000000
0FE0000000
0FE0000000
1FE0000000
1FE0000000
1FE0000000
1FE0000000
1FE0000000
1FE0000000
1FC0000000
1FC0000000
1FC0000000
1FC0000000
1FC0000000
3FC0000000
3FC0000000
3F83FFFF00
3F87FFFE00
3F0FFFFE00
1E0FFFFC00
061FFFF800
003FFFF800
003FFFF000
0000000000
3000000000
3800000000
7E00000000
7F80000000
7F80000000
7F80000000
7F80000000
7F80000000
7F00000000
7F00000000
7F00000000
7F00000000
7E00000000
FE00000000
FC00000000
F800000000
F800000000
F000000000
E000000000
E000000000
C000000000
8000000000
8000000000
ENDCHAR
STARTCHAR 0067
ENCODING 103
SWIDTH 818 0
DWIDTH 50 0
BBX 40 61 4 0
BITMAP
00FFFFFFFE
007FFFFFFC
001FFFFFFC
080FFFFFF8
0E03FFFFF0
0F00FFFFF0
0FC07FFFE0
0FF01FFFC0
0FF0000000
0FE0000000
0FE0000000
0FE0000000
0FE0000000
0FE0000000
1FE0000000
1FE0000000
1FE0000000
1FE0000000
1FE0000000
1FE0000000
1FC0000000
1FC0000000
1FC0000000
1FC0000000
1FC0000000
3FC0000000
3FC0000000
3F80000000
3F80000000
3F00000018
1E0000003E
060000003F
000000007F
00000000FE
00000000FE
30000000FE
38000000FE
7E000000FE
7F800001FE
7F800001FE
7F800001FE
7F800001FE
7F800001FE
7F000001FE
7F000001FE
7F000001FC
7F000001FC
7E000001FC
FE000001FC
FC000003FC
F8000003FC
F8000003FC
F0000003FC
E0FFFE03FC
E1FFFF00FC
C3FFFFC03C
83FFFFF018
87FFFFF800
0FFFFFFE00
0FFFFFFF80
1FFFFFFFC0
ENDCHAR
STARTCHAR 0068
ENCODING 104
SWIDTH 818 0
DWIDTH 50 0
BBX 40 55 4 2
BITMAP
0800000000
0E00000000
0F00000000
0FC0000000
0FF0000000
0FF0000000
0FE0000000
0FE0000000
0FE0000000
0FE0000000
0FE0000000
1FE0000000
1FE0000000
1FE0000000
1FE0000000
1FE0000000
1FE0000000
1FC0000000
1FC0000000
1FC0000000
1FC0000000
1FC0000000
3FC0000000
3FC0000000
3F83FFFF00
3F87FFFE00
3F0FFFFE18
1E0FFFFC3E
061FFFF83F
003FFFF87F
003FFFF0FE
00000000FE
30000000FE
38000000FE
7E000000FE
7F800001FE
7F800001FE
7F800001FE
7F800001FE
7F800001FE
7F000001FE
7F000001FE
7F000001FC
7F000001FC
7E000001FC
FE000001FC
FC000003FC
F8000003FC
F8000003FC
F0000003FC
E0000003FC
E0000000FC
C00000003C
8000000018
8000000000
ENDCHAR
STARTCHAR 0069
ENCODING 105
SWIDTH 818 0
DWIDTH 50 0
BBX 10 28 34 3
BITMAP
0600
0F80
0FC0
1FC0
3F80
3F80
3F80
3F80
3F80
7F80
7F80
7F80
7F80
7F80
7F80
7F80
7F00
7F00
7F00
7F00
FF00
FF00
FF00
FF00
FF00
3F00
0F00
0600
ENDCHAR
STARTCHAR 006A
ENCODING 106
SWIDTH 818 0
DWIDTH 50 0
BBX 42 58 4 1
BITMAP
000000000040
000000000040
0000000000C0
0000000001C0
0000000001C0
0000000003C0
0000000007C0
000000000780
000000000F80
000000001F80
000000001F80
000000003F80
000000003F80
000000007F80
000000007F80
000000007F80
000000007F80
000000007F80
000000007F80
000000007F00
000000001F00
000000000F00
000000000300
000000000000
000000000000
000000000000
000000001800
000000003E00
000000003F00
000000007F00
00000000FE00
00000000FE00
30000000FE00
38000000FE00
7E000000FE00
7F800001FE00
7F800001FE00
7F800001FE00
7F800001FE00
7F800001FE00
7F000001FE00
7F000001FE00
7F000001FC00
7F000001FC00
7E000001FC00
FE000001FC00
FC000003FC00
F8000003FC00
F8000003FC00
F0000003FC00
E0FFFE03FC00
E1FFFF00FC00
C3FFFFC03C00
83FFFFF01800
87FFFFF80000
0FFFFFFE0000
0FFFFFFF8000
1FFFFFFFC000
ENDCHAR
STARTCHAR 006B
ENCODING 107
SWIDTH 818 0
DWIDTH 50 0
BBX 40 58 4 2
BITMAP
00FFFFFFFE
007FFFFFFC
001FFFFFFC
080FFFFFF8
0E03FFFFF0
0F00FFFFF0
0FC07FFFE0
0FF01FFFC0
0FF0000000
0FE0000000
0FE0000000
0FE0000000
0FE0000000
0FE0000000
1FE0000000
1FE0000000
1FE0000000
1FE0000000
1FE0000000
1FE0000000
1FC0000000
1FC0000000
1FC0000000
1FC0000000
1FC0000000
3FC0000000
3FC0000000
3F83FFFF00
3F87FFFE00
3F0FFFFE18
1E0FFFFC3E
061FFFF83F
003FFFF87F
003FFFF0FE
00000000FE
30000000FE
38000000FE
7E000000FE
7F800001FE
7F800001FE
7F800001FE
7F800001FE
7F800001FE
7F000001FE
7F000001FE
7F000001FC
7F000001FC
7E000001FC
FE000001FC
FC000003FC
F8000003FC
F8000003FC
F0000003FC
E0000003FC
E0000000FC
C00000003C
8000000018
8000000000
ENDCHAR
STARTCHAR 006C
ENCODING 108
SWIDTH 818 0
DWIDTH 50 0
BBX 34 58 4 0
BITMAP
0800000000
0E00000000
0F00000000
0FC0000000
0FF0000000
0FF0000000
0FE0000000
0FE0000000
0FE0000000
0FE0000000
0FE0000000
1FE0000000
1FE0000000
1FE0000000
1FE0000000
1FE0000000
1FE0000000
1FC0000000
1FC0000000
1FC0000000
1FC0000000
1FC0000000
3FC0000000
3FC0000000
3F80000000
3F80000000
3F00000000
1E00000000
0600000000
0000000000
0000000000
0000000000
3000000000
3800000000
7E00000000
7F80000000
7F80000000
7F80000000
7F80000000
7F80000000
7F00000000
7F00000000
7F00000000
7F00000000
7E00000000
FE00000000
FC00000000
F800000000
F800000000
F000000000
E0FFFE0000
E1FFFF0000
C3FFFFC000
83FFFFF000
87FFFFF800
0FFFFFFE00
0FFFFFFF80
1FFFFFFFC0
ENDCHAR
STARTCHAR 006D
ENCODING 109
SWIDTH 818 0
DWIDTH 50 0
BBX 42 58 4 2
BITMAP
00FFFFFFFE00
007FFFFFFC00
001FFFFFFC00
080FFFFFF840
0E03FFFFF040
0F00FFFFF0C0
0FC07FFFE1C0
0FF01FFFC1C0
0FF0000003C0
0FE0000007C0
0FE000000780
0FE000000F80
0FE000001F80
0FE000001F80
1FE000003F80
1FE000003F80
1FE000007F80
1FE000007F80
1FE000007F80
1FE000007F80
1FC000007F80
1FC000007F80
1FC000007F00
1FC000001F00
1FC000000F00
3FC000000300
3FC000000000
3F8000000000
3F8000000000
3F0000001800
1E0000003E00
060000003F00
000000007F00
00000000FE00
00000000FE00
30000000FE00
38000000FE00
7E000000FE00
7F800001FE00
7F800001FE00
7F800001FE00
7F800001FE00
7F800001FE00
7F000001FE00
7F000001FE00
7F000001FC00
7F000001FC00
7E000001FC00
FE000001FC00
FC000003FC00
F8000003FC00
F8000003FC00
F0000003FC00
E0000003FC00
E0000000FC00
C00000003C00
800000001800
800000000000
ENDCHAR
STARTCHAR 006E
ENCODING 110
SWIDTH 818 0
DWIDTH 50 0
BBX 40 31 4 2
BITMAP
0003FFFF00
0007FFFE00
000FFFFE18
000FFFFC3E
001FFFF83F
003FFFF87F
003FFFF0FE
00000000FE
30000000FE
38000000FE
7E000000FE
7F800001FE
7F800001FE
7F800001FE
7F800001FE
7F800001FE
7F000001FE
7F000001FE
7F000001FC
7F000001FC
7E000001FC
FE000001FC
FC000003FC
F8000003FC
F8000003FC
F0000003FC
E0000003FC
E0000000FC
C00000003C
8000000018
8000000000
ENDCHAR
STARTCHAR 006F
ENCODING 111
SWIDTH 818 0
DWIDTH 50 0
BBX 40 34 4 0
BITMAP
0003FFFF00
0007FFFE00
000FFFFE18
000FFFFC3E
001FFFF83F
003FFFF87F
003FFFF0FE
00000000FE
30000000FE
38000000FE
7E000000FE
7F800001FE
7F800001FE
7F800001FE
7F800001FE
7F800001FE
7F000001FE
7F000001FE
7F000001FC
7F000001FC
7E000001FC
FE000001FC
FC000003FC
F8000003FC
F8000003FC
F0000003FC
E0FFFE03FC
E1FFFF00FC
C3FFFFC03C
83FFFFF018
87FFFFF800
0FFFFFFE00
0FFFFFFF80
1FFFFFFFC0
ENDCHAR
STARTCHAR 0070
ENCODING 112
SWIDTH 818 0
DWIDTH 50 0
BBX 42 58 4 2
BITMAP
00FFFFFFFE00
007FFFFFFC00
001FFFFFFC00
080FFFFFF840
0E03FFFFF040
0F00FFFFF0C0
0FC07FFFE1C0
0FF01FFFC1C0
0FF0000003C0
0FE0000007C0
0FE000000780
0FE000000F80
0FE000001F80
0FE000001F80
1FE000003F80
1FE000003F80
1FE000007F80
1FE000007F80
1FE000007F80
1FE000007F80
1FC000007F80
1FC000007F80
1FC000007F00
1FC000001F00
1FC000000F00
3FC000000300
3FC000000000
3F83FFFF0000
3F87FFFE0000
3F0FFFFE0000
1E0FFFFC0000
061FFFF80000
003FFFF80000
003FFFF00000
000000000000
300000000000
380000000000
7E0000000000
7F8000000000
7F8000000000
7F8000000000
7F8000000000
7F8000000000
7F0000000000
7F0000000000
7F0000000000
7F0000000000
7E0000000000
FE0000000000
FC0000000000
F80000000000
F80000000000
F00000000000
E00000000000
E00000000000
C00000000000
800000000000
800000000000
ENDCHAR
STARTCHAR 0071
ENCODING 113
SWIDTH 818 0
DWIDTH 50 0
BBX 40 57 6 3
BITMAP
03FFFFFFF8
01FFFFFFF0
007FFFFFF0
203FFFFFE1
380FFFFFC1
3C03FFFFC3
3F01FFFF87
3FC07FFF07
3FC000000F
3F8000001F
3F8000001E
3F8000003E
3F8000007E
3F8000007E
7F800000FE
7F800000FE
7F800001FE
7F800001FE
7F800001FE
7F800001FE
7F000001FE
7F000001FE
7F000001FC
7F0000007C
7F0000003C
FF0000000C
FF00000000
FE0FFFFC00
FE1FFFF800
FC3FFFF860
783FFFF0F8
187FFFE0FC
00FFFFE1FC
00FFFFC3F8
00000003F8
00000003F8
00000003F8
00000003F8
00000007F8
00000007F8
00000007F8
00000007F8
00000007F8
00000007F8
00000007F8
00000007F0
00000007F0
00000007F0
00000007F0
0000000FF0
0000000FF0
0000000FF0
0000000FF0
0000000FF0
00000003F0
00000000F0
0000000060
ENDCHAR
STARTCHAR 0072
ENCODING 114
SWIDTH 818 0
DWIDTH 50 0
BBX 32 31 4 2
BITMAP
0003FFFF
0007FFFE
000FFFFE
000FFFFC
001FFFF8
003FFFF8
003FFFF0
00000000
30000000
38000000
7E000000
7F800000
7F800000
7F800000
7F800000
7F800000
7F000000
7F000000
7F000000
7F000000
7E000000
FE000000
FC000000
F8000000
F8000000
F0000000
E0000000
E0000000
C0000000
80000000
80000000
ENDCHAR
STARTCHAR 0073
ENCODING 115
SWIDTH 818 0
DWIDTH 50 0
BBX 38 58 6 0
BITMAP
2000000000
3800000000
3C00000000
3F00000000
3FC0000000
3FC0000000
3F80000000
3F80000000
3F80000000
3F80000000
3F80000000
7F80000000
7F80000000
7F80000000
7F80000000
7F80000000
7F80000000
7F00000000
7F00000000
7F00000000
7F00000000
7F00000000
FF00000000
FF00000000
FE0FFFFC00
FE1FFFF800
FC3FFFF860
783FFFF0F8
187FFFE0FC
00FFFFE1FC
00FFFFC3F8
00000003F8
00000003F8
00000003F8
00000003F8
00000007F8
00000007F8
00000007F8
00000007F8
00000007F8
00000007F8
00000007F8
00000007F0
00000007F0
00000007F0
00000007F0
0000000FF0
0000000FF0
0000000FF0
0000000FF0
03FFF80FF0
07FFFC03F0
0FFFFF00F0
0FFFFFC060
1FFFFFE000
3FFFFFF800
3FFFFFFE00
7FFFFFFF00
ENDCHAR
STARTCHAR 0074
ENCODING 116
SWIDTH 818 0
DWIDTH 50 0
BBX 34 58 4 0
BITMAP
0800000000
0E00000000
0F00000000
0FC0000000
0FF0000000
0FF0000000
0FE0000000
0FE0000000
0FE0000000
0FE0000000
0FE0000000
1FE0000000
1FE0000000
1FE0000000
1FE0000000
1FE0000000
1FE0000000
1FC0000000
1FC0000000
1FC0000000
1FC0000000
1FC0000000
3FC0000000
3FC0000000
3F83FFFF00
3F87FFFE00
3F0FFFFE00
1E0FFFFC00
061FFFF800
003FFFF800
003FFFF000
0000000000
3000000000
3800000000
7E00000000
7F80000000
7F80000000
7F80000000
7F80000000
7F80000000
7F00000000
7F00000000
7F00000000
7F00000000
7E00000000
FE00000000
FC00000000
F800000000
F800000000
F000000000
E0FFFE0000
E1FFFF0000
C3FFFFC000
83FFFFF000
87FFFFF800
0FFFFFFE00
0FFFFFFF80
1FFFFFFFC0
ENDCHAR
STARTCHAR 0075
ENCODING 117
SWIDTH 818 0
DWIDTH 50 0
BBX 40 32 4 0
BITMAP
0000000018
000000003E
000000003F
000000007F
00000000FE
00000000FE
30000000FE
38000000FE
7E000000FE
7F800001FE
7F800001FE
7F800001FE
7F800001FE
7F800001FE
7F000001FE
7F000001FE
7F000001FC
7F000001FC
7E000001FC
FE000001FC
FC000003FC
F8000003FC
F8000003FC
F0000003FC
E0FFFE03FC
E1FFFF00FC
C3FFFFC03C
83FFFFF018
87FFFFF800
0FFFFFFE00
0FFFFFFF80
1FFFFFFFC0
ENDCHAR
STARTCHAR 0076
ENCODING 118
SWIDTH 818 0
DWIDTH 50 0
BBX 42 58 4 1
BITMAP
080000000040
0E0000000040
0F00000000C0
0FC0000001C0
0FF0000001C0
0FF0000003C0
0FE0000007C0
0FE000000780
0FE000000F80
0FE000001F80
0FE000001F80
1FE000003F80
1FE000003F80
1FE000007F80
1FE000007F80
1FE000007F80
1FE000007F80
1FC000007F80
1FC000007F80
1FC000007F00
1FC000001F00
1FC000000F00
3FC000000300
3FC000000000
3F8000000000
3F8000000000
3F0000001800
1E0000003E00
060000003F00
000000007F00
00000000FE00
00000000FE00
30000000FE00
38000000FE00
7E000000FE00
7F800001FE00
7F800001FE00
7F800001FE00
7F800001FE00
7F800001FE00
7F000001FE00
7F000001FE00
7F000001FC00
7F000001FC00
7E000001FC00
FE000001FC00
FC000003FC00
F8000003FC00
F8000003FC00
F0000003FC00
E0FFFE03FC00
E1FFFF00FC00
C3FFFFC03C00
83FFFFF01800
87FFFFF80000
0FFFFFFE0000
0FFFFFFF8000
1FFFFFFFC000
ENDCHAR
STARTCHAR 0077
ENCODING 119
SWIDTH 818 0
DWIDTH 50 0
BBX 42 58 4 1
BITMAP
080000000040
0E0000000040
0F00000000C0
0FC0000001C0
0FF0000001C0
0FF0000003C0
0FE0000007C0
0FE000000780
0FE000000F80
0FE000001F80
0FE000001F80
1FE000003F80
1FE000003F80
1FE000007F80
1FE000007F80
1FE000007F80
1FE000007F80
1FC000007F80
1FC000007F80
1FC000007F00
1FC000001F00
1FC000000F00
3FC000000300
3FC000000000
3F83FFFF0000
3F87FFFE0000
3F0FFFFE1800
1E0FFFFC3E00
061FFFF83F00
003FFFF87F00
003FFFF0FE00
00000000FE00
30000000FE00
38000000FE00
7E000000FE00
7F800001FE00
7F800001FE00
7F800001FE00
7F800001FE00
7F800001FE00
7F000001FE00
7F000001FE00
7F000001FC00
7F000001FC00
7E000001FC00
FE000001FC00
FC000003FC00
F8000003FC00
F8000003FC00
F0000003FC00
E0FFFE03FC00
E1FFFF00FC00
C3FFFFC03C00
83FFFFF01800
87FFFFF80000
0FFFFFFE0000
0FFFFFFF8000
1FFFFFFFC000
ENDCHAR
STARTCHAR 0078
ENCODING 120
SWIDTH 818 0
DWIDTH 50 0
BBX 42 55 4 3
BITMAP
080000000040
0E0000000040
0F00000000C0
0FC0000001C0
0FF0000001C0
0FF0000003C0
0FE0000007C0
0FE000000780
0FE000000F80
0FE000001F80
0FE000001F80
1FE000003F80
1FE000003F80
1FE000007F80
1FE000007F80
1FE000007F80
1FE000007F80
1FC000007F80
1FC000007F80
1FC000007F00
1FC000001F00
1FC000000F00
3FC000000300
3FC000000000
3F83FFFF0000
3F87FFFE0000
3F0FFFFE1800
1E0FFFFC3E00
061FFFF83F00
003FFFF87F00
003FFFF0FE00
00000000FE00
30000000FE00
38000000FE00
7E000000FE00
7F800001FE00
7F800001FE00
7F800001FE00
7F800001FE00
7F800001FE00
7F000001FE00
7F000001FE00
7F000001FC00
7F000001FC00
7E000001FC00
FE000001FC00
FC000003FC00
F8000003FC00
F8000003FC00
F0000003FC00
E0000003FC00
E0000000FC00
C00000003C00
800000001800
800000000000
ENDCHAR
STARTCHAR 0079
ENCODING 121
SWIDTH 818 0
DWIDTH 50 0
BBX 40 58 6 1
BITMAP
2000000001
3800000001
3C00000003
3F00000007
3FC0000007
3FC000000F
3F8000001F
3F8000001E
3F8000003E
3F8000007E
3F8000007E
7F800000FE
7F800000FE
7F800001FE
7F800001FE
7F800001FE
7F800001FE
7F000001FE
7F000001FE
7F000001FC
7F0000007C
7F0000003C
FF0000000C
FF00000000
FE0FFFFC00
FE1FFFF800
FC3FFFF860
783FFFF0F8
187FFFE0FC
00FFFFE1FC
00FFFFC3F8
00000003F8
00000003F8
00000003F8
00000003F8
00000007F8
00000007F8
00000007F8
00000007F8
00000007F8
00000007F8
00000007F8
00000007F0
00000007F0
00000007F0
00000007F0
0000000FF0
0000000FF0
0000000FF0
0000000FF0
03FFF80FF0
07FFFC03F0
0FFFFF00F0
0FFFFFC060
1FFFFFE000
3FFFFFF800
3FFFFFFE00
7FFFFFFF00
ENDCHAR
STARTCHAR 007A
ENCODING 122
SWIDTH 818 0
DWIDTH 50 0
BBX 42 61 4 0
BITMAP
00FFFFFFFE00
007FFFFFFC00
001FFFFFFC00
000FFFFFF840
0003FFFFF040
0000FFFFF0C0
00007FFFE1C0
00001FFFC1C0
0000000003C0
0000000007C0
000000000780
000000000F80
000000001F80
000000001F80
000000003F80
000000003F80
000000007F80
000000007F80
000000007F80
000000007F80
000000007F80
000000007F80
000000007F00
000000001F00
000000000F00
000000000300
000000000000
000000000000
000000000000
000000000000
000000000000
000000000000
000000000000
000000000000
000000000000
300000000000
380000000000
7E0000000000
7F8000000000
7F8000000000
7F8000000000
7F8000000000
7F8000000000
7F0000000000
7F0000000000
7F0000000000
7F0000000000
7E0000000000
FE0000000000
FC0000000000
F80000000000
F80000000000
F00000000000
E0FFFE000000
E1FFFF000000
C3FFFFC00000
83FFFFF00000
87FFFFF80000
0FFFFFFE0000
0FFFFFFF8000
1FFFFFFFC000
ENDCHAR
ENDFONT
